<mxfile host="Electron" modified="2024-09-14T13:48:39.295Z" agent="Mozilla/5.0 (Windows NT 10.0; Win64; x64) AppleWebKit/537.36 (KHTML, like Gecko) draw.io/22.1.16 Chrome/120.0.6099.109 Electron/28.1.0 Safari/537.36" etag="n-jrqRM7gPl8y4Uk0T6X" version="22.1.16" type="device">
  <diagram name="Page-1" id="-H_mtQnk-PTXWXPvYvuk">
    <mxGraphModel dx="3816" dy="4281" grid="1" gridSize="10" guides="1" tooltips="1" connect="1" arrows="1" fold="1" page="1" pageScale="1" pageWidth="1169" pageHeight="827" math="0" shadow="0">
      <root>
        <mxCell id="0" />
        <mxCell id="1" parent="0" />
        <mxCell id="xjxATC7eD6JjGwYjVx3A-135" value="" style="rounded=1;whiteSpace=wrap;html=1;fontColor=none;noLabel=1;labelBackgroundColor=#fffb85;textOpacity=50;fillStyle=solid;gradientColor=none;gradientDirection=north;fillColor=#eef099;shadow=0;glass=0;opacity=45;" parent="1" vertex="1">
          <mxGeometry x="-940" y="-1130" width="500" height="520" as="geometry" />
        </mxCell>
        <mxCell id="xjxATC7eD6JjGwYjVx3A-133" value="" style="rounded=1;whiteSpace=wrap;html=1;fontColor=none;noLabel=1;labelBackgroundColor=#fffb85;textOpacity=50;fillStyle=solid;gradientColor=none;gradientDirection=north;fillColor=#eef099;shadow=0;glass=0;opacity=25;" parent="1" vertex="1">
          <mxGeometry x="-870" y="-1410" width="580" height="510" as="geometry" />
        </mxCell>
        <mxCell id="zA23MoTUsTF4_91t8viU-3" value="pymongo-api" style="rounded=1;whiteSpace=wrap;html=1;" parent="1" vertex="1">
          <mxGeometry x="-480" y="-1510" width="120" height="60" as="geometry" />
        </mxCell>
        <mxCell id="zA23MoTUsTF4_91t8viU-4" style="edgeStyle=orthogonalEdgeStyle;rounded=0;orthogonalLoop=1;jettySize=auto;html=1;exitX=1;exitY=0.5;exitDx=0;exitDy=0;entryX=0.5;entryY=0;entryDx=0;entryDy=0;" parent="1" source="zA23MoTUsTF4_91t8viU-3" target="xjxATC7eD6JjGwYjVx3A-26" edge="1">
          <mxGeometry relative="1" as="geometry">
            <mxPoint x="-280" y="-1480" as="targetPoint" />
          </mxGeometry>
        </mxCell>
        <mxCell id="xjxATC7eD6JjGwYjVx3A-29" value="" style="edgeStyle=orthogonalEdgeStyle;rounded=0;orthogonalLoop=1;jettySize=auto;html=1;" parent="1" source="xjxATC7eD6JjGwYjVx3A-26" target="xjxATC7eD6JjGwYjVx3A-28" edge="1">
          <mxGeometry relative="1" as="geometry" />
        </mxCell>
        <mxCell id="xjxATC7eD6JjGwYjVx3A-31" value="" style="edgeStyle=orthogonalEdgeStyle;rounded=0;orthogonalLoop=1;jettySize=auto;html=1;" parent="1" source="xjxATC7eD6JjGwYjVx3A-26" target="xjxATC7eD6JjGwYjVx3A-30" edge="1">
          <mxGeometry relative="1" as="geometry" />
        </mxCell>
        <mxCell id="xjxATC7eD6JjGwYjVx3A-33" value="" style="edgeStyle=orthogonalEdgeStyle;rounded=0;orthogonalLoop=1;jettySize=auto;html=1;entryX=0;entryY=0.5;entryDx=0;entryDy=0;" parent="1" source="xjxATC7eD6JjGwYjVx3A-26" target="xjxATC7eD6JjGwYjVx3A-32" edge="1">
          <mxGeometry relative="1" as="geometry" />
        </mxCell>
        <mxCell id="xjxATC7eD6JjGwYjVx3A-26" value="&lt;b&gt;Роутер&lt;/b&gt;" style="rounded=1;whiteSpace=wrap;html=1;fillColor=#b1ddf0;strokeColor=#10739e;" parent="1" vertex="1">
          <mxGeometry x="-630" y="-1280" width="120" height="60" as="geometry" />
        </mxCell>
        <mxCell id="xjxATC7eD6JjGwYjVx3A-28" value="Шард1" style="rounded=1;whiteSpace=wrap;html=1;fillColor=#b1ddf0;strokeColor=#10739e;" parent="1" vertex="1">
          <mxGeometry x="-770" y="-1160" width="120" height="30" as="geometry" />
        </mxCell>
        <mxCell id="xjxATC7eD6JjGwYjVx3A-30" value="Шард2" style="rounded=1;whiteSpace=wrap;html=1;fillColor=#b1ddf0;strokeColor=#10739e;" parent="1" vertex="1">
          <mxGeometry x="-630" y="-1160" width="120" height="30" as="geometry" />
        </mxCell>
        <mxCell id="xjxATC7eD6JjGwYjVx3A-32" value="&lt;b&gt;Конфигурационный сервер&lt;/b&gt;" style="rounded=1;whiteSpace=wrap;html=1;fillColor=#fad7ac;strokeColor=#b46504;" parent="1" vertex="1">
          <mxGeometry x="-440" y="-1280" width="120" height="60" as="geometry" />
        </mxCell>
        <mxCell id="xjxATC7eD6JjGwYjVx3A-41" value="Replicaset" style="text;html=1;strokeColor=none;fillColor=none;align=center;verticalAlign=middle;whiteSpace=wrap;rounded=0;" parent="1" vertex="1">
          <mxGeometry x="-830" y="-1190" width="60" height="30" as="geometry" />
        </mxCell>
        <mxCell id="xjxATC7eD6JjGwYjVx3A-99" value="Шардирование&amp;nbsp;&lt;br&gt;MongoDB" style="text;strokeColor=none;fillColor=none;html=1;fontSize=24;fontStyle=1;verticalAlign=middle;align=center;" parent="1" vertex="1">
          <mxGeometry x="-815" y="-1381" width="100" height="40" as="geometry" />
        </mxCell>
        <mxCell id="xjxATC7eD6JjGwYjVx3A-102" value="" style="shape=cylinder3;whiteSpace=wrap;html=1;boundedLbl=1;backgroundOutline=1;size=15;shadow=1;fillStyle=hatch;movable=1;resizable=1;rotatable=1;deletable=1;editable=1;locked=0;connectable=1;fillColor=#99FFFF;" parent="1" vertex="1">
          <mxGeometry x="-795" y="-1090" width="60" height="40" as="geometry" />
        </mxCell>
        <mxCell id="xjxATC7eD6JjGwYjVx3A-104" value="" style="group" parent="1" vertex="1" connectable="0">
          <mxGeometry x="-860" y="-1000" width="80" height="60" as="geometry" />
        </mxCell>
        <mxCell id="xjxATC7eD6JjGwYjVx3A-105" value="" style="shape=cylinder3;whiteSpace=wrap;html=1;boundedLbl=1;backgroundOutline=1;size=15;fillStyle=solid;shadow=1;" parent="xjxATC7eD6JjGwYjVx3A-104" vertex="1">
          <mxGeometry y="20" width="60" height="40" as="geometry" />
        </mxCell>
        <mxCell id="xjxATC7eD6JjGwYjVx3A-106" value="" style="shape=cylinder3;whiteSpace=wrap;html=1;boundedLbl=1;backgroundOutline=1;size=15;fillStyle=solid;shadow=1;" parent="xjxATC7eD6JjGwYjVx3A-104" vertex="1">
          <mxGeometry width="60" height="40" as="geometry" />
        </mxCell>
        <mxCell id="xjxATC7eD6JjGwYjVx3A-107" value="S" style="text;strokeColor=none;fillColor=none;html=1;fontSize=24;fontStyle=1;verticalAlign=middle;align=center;" parent="xjxATC7eD6JjGwYjVx3A-104" vertex="1">
          <mxGeometry x="-20" y="-20" width="100" height="40" as="geometry" />
        </mxCell>
        <mxCell id="xjxATC7eD6JjGwYjVx3A-108" value="" style="shape=cylinder3;whiteSpace=wrap;html=1;boundedLbl=1;backgroundOutline=1;size=15;fillStyle=solid;shadow=1;" parent="1" vertex="1">
          <mxGeometry x="-860" y="-870" width="60" height="40" as="geometry" />
        </mxCell>
        <mxCell id="d8I7f4nJBKEhvR8xaNe3-2" style="edgeStyle=orthogonalEdgeStyle;rounded=0;orthogonalLoop=1;jettySize=auto;html=1;startArrow=classic;startFill=1;strokeColor=#64ff00;" parent="1" source="xjxATC7eD6JjGwYjVx3A-109" target="xjxATC7eD6JjGwYjVx3A-119" edge="1">
          <mxGeometry relative="1" as="geometry" />
        </mxCell>
        <mxCell id="d8I7f4nJBKEhvR8xaNe3-4" value="heartbeat" style="edgeLabel;html=1;align=center;verticalAlign=middle;resizable=0;points=[];" parent="d8I7f4nJBKEhvR8xaNe3-2" vertex="1" connectable="0">
          <mxGeometry x="0.0267" y="2" relative="1" as="geometry">
            <mxPoint as="offset" />
          </mxGeometry>
        </mxCell>
        <mxCell id="xjxATC7eD6JjGwYjVx3A-109" value="" style="shape=cylinder3;whiteSpace=wrap;html=1;boundedLbl=1;backgroundOutline=1;size=15;fillStyle=solid;shadow=1;" parent="1" vertex="1">
          <mxGeometry x="-860" y="-890" width="60" height="40" as="geometry" />
        </mxCell>
        <mxCell id="xjxATC7eD6JjGwYjVx3A-110" style="edgeStyle=orthogonalEdgeStyle;rounded=0;orthogonalLoop=1;jettySize=auto;html=1;exitX=0.855;exitY=1;exitDx=0;exitDy=-4.35;exitPerimeter=0;entryX=0.5;entryY=1;entryDx=0;entryDy=0;entryPerimeter=0;endArrow=classic;endFill=1;startArrow=classic;startFill=1;curved=1;" parent="1" source="xjxATC7eD6JjGwYjVx3A-106" target="xjxATC7eD6JjGwYjVx3A-102" edge="1">
          <mxGeometry relative="1" as="geometry" />
        </mxCell>
        <mxCell id="xjxATC7eD6JjGwYjVx3A-111" style="edgeStyle=orthogonalEdgeStyle;rounded=0;orthogonalLoop=1;jettySize=auto;html=1;curved=1;startArrow=classic;startFill=1;" parent="1" source="xjxATC7eD6JjGwYjVx3A-108" target="xjxATC7eD6JjGwYjVx3A-102" edge="1">
          <mxGeometry relative="1" as="geometry" />
        </mxCell>
        <mxCell id="xjxATC7eD6JjGwYjVx3A-112" style="edgeStyle=orthogonalEdgeStyle;rounded=0;orthogonalLoop=1;jettySize=auto;html=1;fillColor=#0050ef;strokeColor=#001DBC;entryX=0;entryY=0;entryDx=0;entryDy=15;entryPerimeter=0;" parent="1" source="xjxATC7eD6JjGwYjVx3A-102" target="xjxATC7eD6JjGwYjVx3A-108" edge="1">
          <mxGeometry relative="1" as="geometry">
            <mxPoint x="-620" y="-1020" as="targetPoint" />
          </mxGeometry>
        </mxCell>
        <mxCell id="xjxATC7eD6JjGwYjVx3A-114" style="edgeStyle=orthogonalEdgeStyle;rounded=0;orthogonalLoop=1;jettySize=auto;html=1;fillColor=#0050ef;strokeColor=#001DBC;entryX=0;entryY=0;entryDx=0;entryDy=15;entryPerimeter=0;" parent="1" source="xjxATC7eD6JjGwYjVx3A-102" target="xjxATC7eD6JjGwYjVx3A-105" edge="1">
          <mxGeometry relative="1" as="geometry">
            <Array as="points">
              <mxPoint x="-880" y="-1070" />
              <mxPoint x="-880" y="-965" />
            </Array>
          </mxGeometry>
        </mxCell>
        <mxCell id="xjxATC7eD6JjGwYjVx3A-115" value="репликация" style="edgeLabel;html=1;align=center;verticalAlign=middle;resizable=0;points=[];" parent="xjxATC7eD6JjGwYjVx3A-114" vertex="1" connectable="0">
          <mxGeometry x="-0.1744" y="-1" relative="1" as="geometry">
            <mxPoint as="offset" />
          </mxGeometry>
        </mxCell>
        <mxCell id="xjxATC7eD6JjGwYjVx3A-118" value="" style="shape=cylinder3;whiteSpace=wrap;html=1;boundedLbl=1;backgroundOutline=1;size=15;fillStyle=solid;shadow=1;" parent="1" vertex="1">
          <mxGeometry x="-860" y="-770" width="60" height="40" as="geometry" />
        </mxCell>
        <mxCell id="xjxATC7eD6JjGwYjVx3A-124" style="edgeStyle=orthogonalEdgeStyle;rounded=0;orthogonalLoop=1;jettySize=auto;html=1;curved=1;entryX=0.5;entryY=1;entryDx=0;entryDy=0;entryPerimeter=0;startArrow=classic;startFill=1;" parent="1" source="xjxATC7eD6JjGwYjVx3A-119" target="xjxATC7eD6JjGwYjVx3A-102" edge="1">
          <mxGeometry relative="1" as="geometry">
            <mxPoint x="-720" y="-1039.9999999999998" as="targetPoint" />
            <Array as="points">
              <mxPoint x="-720" y="-760" />
            </Array>
          </mxGeometry>
        </mxCell>
        <mxCell id="xjxATC7eD6JjGwYjVx3A-119" value="" style="shape=cylinder3;whiteSpace=wrap;html=1;boundedLbl=1;backgroundOutline=1;size=15;fillStyle=solid;shadow=1;" parent="1" vertex="1">
          <mxGeometry x="-860" y="-780" width="60" height="40" as="geometry" />
        </mxCell>
        <mxCell id="xjxATC7eD6JjGwYjVx3A-126" style="edgeStyle=orthogonalEdgeStyle;rounded=0;orthogonalLoop=1;jettySize=auto;html=1;fillColor=#0050ef;strokeColor=#001DBC;exitX=0;exitY=0.5;exitDx=0;exitDy=0;exitPerimeter=0;entryX=0;entryY=1;entryDx=0;entryDy=-15;entryPerimeter=0;" parent="1" source="xjxATC7eD6JjGwYjVx3A-102" target="xjxATC7eD6JjGwYjVx3A-119" edge="1">
          <mxGeometry relative="1" as="geometry">
            <mxPoint x="-480" y="-1020" as="targetPoint" />
            <mxPoint x="-650.48" y="-1079.9999999999998" as="sourcePoint" />
            <Array as="points">
              <mxPoint x="-880" y="-1070" />
              <mxPoint x="-880" y="-755" />
            </Array>
          </mxGeometry>
        </mxCell>
        <mxCell id="xjxATC7eD6JjGwYjVx3A-132" value="1 вариант схемы" style="text;strokeColor=none;fillColor=none;html=1;fontSize=14;fontStyle=0;verticalAlign=middle;align=center;" parent="1" vertex="1">
          <mxGeometry x="-733" y="-1412" width="100" height="40" as="geometry" />
        </mxCell>
        <mxCell id="xjxATC7eD6JjGwYjVx3A-136" value="Репликация&lt;br style=&quot;border-color: var(--border-color);&quot;&gt;&amp;nbsp;MongoDB" style="text;strokeColor=none;fillColor=none;html=1;fontSize=24;fontStyle=1;verticalAlign=middle;align=center;" parent="1" vertex="1">
          <mxGeometry x="-650" y="-659" width="100" height="35" as="geometry" />
        </mxCell>
        <mxCell id="xjxATC7eD6JjGwYjVx3A-137" value="2 вариант схемы" style="text;strokeColor=none;fillColor=none;html=1;fontSize=14;fontStyle=0;verticalAlign=middle;align=center;" parent="1" vertex="1">
          <mxGeometry x="-560" y="-690" width="100" height="40" as="geometry" />
        </mxCell>
        <mxCell id="d8I7f4nJBKEhvR8xaNe3-1" style="edgeStyle=orthogonalEdgeStyle;rounded=0;orthogonalLoop=1;jettySize=auto;html=1;entryX=0.5;entryY=0;entryDx=0;entryDy=0;entryPerimeter=0;startArrow=classic;startFill=1;strokeColor=#6dee53;" parent="1" source="xjxATC7eD6JjGwYjVx3A-106" target="xjxATC7eD6JjGwYjVx3A-109" edge="1">
          <mxGeometry relative="1" as="geometry" />
        </mxCell>
        <mxCell id="d8I7f4nJBKEhvR8xaNe3-3" value="heartbeat" style="edgeLabel;html=1;align=center;verticalAlign=middle;resizable=0;points=[];" parent="d8I7f4nJBKEhvR8xaNe3-1" vertex="1" connectable="0">
          <mxGeometry x="0.0148" relative="1" as="geometry">
            <mxPoint as="offset" />
          </mxGeometry>
        </mxCell>
        <mxCell id="xjxATC7eD6JjGwYjVx3A-101" value="" style="shape=cylinder3;whiteSpace=wrap;html=1;boundedLbl=1;backgroundOutline=1;size=15;fixDash=0;container=0;dropTarget=0;movable=1;resizable=1;rotatable=1;deletable=1;editable=1;locked=0;connectable=1;fillColor=default;" parent="1" vertex="1">
          <mxGeometry x="-795" y="-1108" width="60" height="40" as="geometry" />
        </mxCell>
        <mxCell id="d8I7f4nJBKEhvR8xaNe3-6" value="M" style="text;strokeColor=none;fillColor=none;html=1;fontSize=24;fontStyle=1;verticalAlign=middle;align=center;" parent="1" vertex="1">
          <mxGeometry x="-815" y="-1120" width="100" height="40" as="geometry" />
        </mxCell>
        <mxCell id="d8I7f4nJBKEhvR8xaNe3-7" value="" style="shape=cylinder3;whiteSpace=wrap;html=1;boundedLbl=1;backgroundOutline=1;size=15;shadow=1;fillStyle=hatch;movable=1;resizable=1;rotatable=1;deletable=1;editable=1;locked=0;connectable=1;fillColor=#99FFFF;" parent="1" vertex="1">
          <mxGeometry x="-620" y="-1102" width="60" height="40" as="geometry" />
        </mxCell>
        <mxCell id="d8I7f4nJBKEhvR8xaNe3-8" value="" style="group" parent="1" vertex="1" connectable="0">
          <mxGeometry x="-540.05" y="-1010" width="80" height="60" as="geometry" />
        </mxCell>
        <mxCell id="d8I7f4nJBKEhvR8xaNe3-9" value="" style="shape=cylinder3;whiteSpace=wrap;html=1;boundedLbl=1;backgroundOutline=1;size=15;fillStyle=solid;shadow=1;" parent="d8I7f4nJBKEhvR8xaNe3-8" vertex="1">
          <mxGeometry y="20" width="60" height="40" as="geometry" />
        </mxCell>
        <mxCell id="d8I7f4nJBKEhvR8xaNe3-10" value="" style="shape=cylinder3;whiteSpace=wrap;html=1;boundedLbl=1;backgroundOutline=1;size=15;fillStyle=solid;shadow=1;" parent="d8I7f4nJBKEhvR8xaNe3-8" vertex="1">
          <mxGeometry width="60" height="40" as="geometry" />
        </mxCell>
        <mxCell id="d8I7f4nJBKEhvR8xaNe3-11" value="S" style="text;strokeColor=none;fillColor=none;html=1;fontSize=24;fontStyle=1;verticalAlign=middle;align=center;" parent="d8I7f4nJBKEhvR8xaNe3-8" vertex="1">
          <mxGeometry x="-20" y="-20" width="100" height="40" as="geometry" />
        </mxCell>
        <mxCell id="d8I7f4nJBKEhvR8xaNe3-12" value="" style="shape=cylinder3;whiteSpace=wrap;html=1;boundedLbl=1;backgroundOutline=1;size=15;fillStyle=solid;shadow=1;" parent="1" vertex="1">
          <mxGeometry x="-540.05" y="-880" width="60" height="40" as="geometry" />
        </mxCell>
        <mxCell id="d8I7f4nJBKEhvR8xaNe3-13" style="edgeStyle=orthogonalEdgeStyle;rounded=0;orthogonalLoop=1;jettySize=auto;html=1;startArrow=classic;startFill=1;strokeColor=#52ff86;" parent="1" target="d8I7f4nJBKEhvR8xaNe3-23" edge="1">
          <mxGeometry relative="1" as="geometry">
            <mxPoint x="-510" y="-841" as="sourcePoint" />
          </mxGeometry>
        </mxCell>
        <mxCell id="d8I7f4nJBKEhvR8xaNe3-14" value="heartbeat" style="edgeLabel;html=1;align=center;verticalAlign=middle;resizable=0;points=[];" parent="d8I7f4nJBKEhvR8xaNe3-13" vertex="1" connectable="0">
          <mxGeometry x="0.0267" y="2" relative="1" as="geometry">
            <mxPoint as="offset" />
          </mxGeometry>
        </mxCell>
        <mxCell id="d8I7f4nJBKEhvR8xaNe3-15" value="" style="shape=cylinder3;whiteSpace=wrap;html=1;boundedLbl=1;backgroundOutline=1;size=15;fillStyle=solid;shadow=1;" parent="1" vertex="1">
          <mxGeometry x="-540.05" y="-900" width="60" height="40" as="geometry" />
        </mxCell>
        <mxCell id="d8I7f4nJBKEhvR8xaNe3-16" style="edgeStyle=orthogonalEdgeStyle;rounded=0;orthogonalLoop=1;jettySize=auto;html=1;exitX=0;exitY=0;exitDx=0;exitDy=17.5;exitPerimeter=0;entryX=0.5;entryY=1;entryDx=0;entryDy=0;entryPerimeter=0;endArrow=classic;endFill=1;startArrow=classic;startFill=1;curved=1;" parent="1" source="d8I7f4nJBKEhvR8xaNe3-9" target="d8I7f4nJBKEhvR8xaNe3-7" edge="1">
          <mxGeometry relative="1" as="geometry" />
        </mxCell>
        <mxCell id="d8I7f4nJBKEhvR8xaNe3-17" style="edgeStyle=orthogonalEdgeStyle;rounded=0;orthogonalLoop=1;jettySize=auto;html=1;curved=1;startArrow=classic;startFill=1;" parent="1" source="d8I7f4nJBKEhvR8xaNe3-12" target="d8I7f4nJBKEhvR8xaNe3-7" edge="1">
          <mxGeometry relative="1" as="geometry" />
        </mxCell>
        <mxCell id="d8I7f4nJBKEhvR8xaNe3-21" value="" style="shape=cylinder3;whiteSpace=wrap;html=1;boundedLbl=1;backgroundOutline=1;size=15;fillStyle=solid;shadow=1;" parent="1" vertex="1">
          <mxGeometry x="-540.05" y="-780" width="60" height="40" as="geometry" />
        </mxCell>
        <mxCell id="d8I7f4nJBKEhvR8xaNe3-22" style="edgeStyle=orthogonalEdgeStyle;rounded=0;orthogonalLoop=1;jettySize=auto;html=1;curved=1;entryX=0.5;entryY=1;entryDx=0;entryDy=0;entryPerimeter=0;startArrow=classic;startFill=1;" parent="1" source="d8I7f4nJBKEhvR8xaNe3-23" target="d8I7f4nJBKEhvR8xaNe3-7" edge="1">
          <mxGeometry relative="1" as="geometry">
            <mxPoint x="-400.05" y="-1049.9999999999998" as="targetPoint" />
            <Array as="points">
              <mxPoint x="-600" y="-770" />
              <mxPoint x="-600" y="-1062" />
            </Array>
          </mxGeometry>
        </mxCell>
        <mxCell id="d8I7f4nJBKEhvR8xaNe3-23" value="" style="shape=cylinder3;whiteSpace=wrap;html=1;boundedLbl=1;backgroundOutline=1;size=15;fillStyle=solid;shadow=1;" parent="1" vertex="1">
          <mxGeometry x="-540.05" y="-790" width="60" height="40" as="geometry" />
        </mxCell>
        <mxCell id="d8I7f4nJBKEhvR8xaNe3-25" style="edgeStyle=orthogonalEdgeStyle;rounded=0;orthogonalLoop=1;jettySize=auto;html=1;entryX=0.5;entryY=0;entryDx=0;entryDy=0;entryPerimeter=0;startArrow=classic;startFill=1;strokeColor=#64ff00;" parent="1" target="d8I7f4nJBKEhvR8xaNe3-15" edge="1">
          <mxGeometry relative="1" as="geometry">
            <mxPoint x="-510" y="-951" as="sourcePoint" />
          </mxGeometry>
        </mxCell>
        <mxCell id="d8I7f4nJBKEhvR8xaNe3-26" value="heartbeat" style="edgeLabel;html=1;align=center;verticalAlign=middle;resizable=0;points=[];" parent="d8I7f4nJBKEhvR8xaNe3-25" vertex="1" connectable="0">
          <mxGeometry x="0.0148" relative="1" as="geometry">
            <mxPoint as="offset" />
          </mxGeometry>
        </mxCell>
        <mxCell id="d8I7f4nJBKEhvR8xaNe3-27" value="" style="shape=cylinder3;whiteSpace=wrap;html=1;boundedLbl=1;backgroundOutline=1;size=15;fixDash=0;container=0;dropTarget=0;movable=1;resizable=1;rotatable=1;deletable=1;editable=1;locked=0;connectable=1;fillColor=default;" parent="1" vertex="1">
          <mxGeometry x="-620" y="-1120" width="60" height="40" as="geometry" />
        </mxCell>
        <mxCell id="d8I7f4nJBKEhvR8xaNe3-28" value="M" style="text;strokeColor=none;fillColor=none;html=1;fontSize=24;fontStyle=1;verticalAlign=middle;align=center;" parent="1" vertex="1">
          <mxGeometry x="-640" y="-1130" width="100" height="40" as="geometry" />
        </mxCell>
        <mxCell id="d8I7f4nJBKEhvR8xaNe3-32" style="edgeStyle=orthogonalEdgeStyle;rounded=0;orthogonalLoop=1;jettySize=auto;html=1;entryX=1;entryY=0.5;entryDx=0;entryDy=0;entryPerimeter=0;" parent="1" source="d8I7f4nJBKEhvR8xaNe3-7" target="d8I7f4nJBKEhvR8xaNe3-9" edge="1">
          <mxGeometry relative="1" as="geometry" />
        </mxCell>
        <mxCell id="d8I7f4nJBKEhvR8xaNe3-33" style="edgeStyle=orthogonalEdgeStyle;rounded=0;orthogonalLoop=1;jettySize=auto;html=1;entryX=1;entryY=0.5;entryDx=0;entryDy=0;entryPerimeter=0;" parent="1" source="d8I7f4nJBKEhvR8xaNe3-7" target="d8I7f4nJBKEhvR8xaNe3-12" edge="1">
          <mxGeometry relative="1" as="geometry" />
        </mxCell>
        <mxCell id="d8I7f4nJBKEhvR8xaNe3-34" style="edgeStyle=orthogonalEdgeStyle;rounded=0;orthogonalLoop=1;jettySize=auto;html=1;entryX=1;entryY=0.5;entryDx=0;entryDy=0;entryPerimeter=0;strokeColor=#3a30c5;" parent="1" source="d8I7f4nJBKEhvR8xaNe3-7" target="d8I7f4nJBKEhvR8xaNe3-21" edge="1">
          <mxGeometry relative="1" as="geometry" />
        </mxCell>
        <mxCell id="d8I7f4nJBKEhvR8xaNe3-35" value="репликация" style="edgeLabel;html=1;align=center;verticalAlign=middle;resizable=0;points=[];" parent="d8I7f4nJBKEhvR8xaNe3-34" vertex="1" connectable="0">
          <mxGeometry x="-0.8115" y="2" relative="1" as="geometry">
            <mxPoint as="offset" />
          </mxGeometry>
        </mxCell>
        <mxCell id="d8I7f4nJBKEhvR8xaNe3-36" value="S" style="text;strokeColor=none;fillColor=none;html=1;fontSize=24;fontStyle=1;verticalAlign=middle;align=center;" parent="1" vertex="1">
          <mxGeometry x="-560.05" y="-911" width="100" height="40" as="geometry" />
        </mxCell>
        <mxCell id="d8I7f4nJBKEhvR8xaNe3-37" value="S" style="text;strokeColor=none;fillColor=none;html=1;fontSize=24;fontStyle=1;verticalAlign=middle;align=center;" parent="1" vertex="1">
          <mxGeometry x="-560.05" y="-801" width="100" height="40" as="geometry" />
        </mxCell>
        <mxCell id="d8I7f4nJBKEhvR8xaNe3-42" value="S" style="text;strokeColor=none;fillColor=none;html=1;fontSize=24;fontStyle=1;verticalAlign=middle;align=center;" parent="1" vertex="1">
          <mxGeometry x="-880" y="-900" width="100" height="40" as="geometry" />
        </mxCell>
        <mxCell id="d8I7f4nJBKEhvR8xaNe3-43" value="S" style="text;strokeColor=none;fillColor=none;html=1;fontSize=24;fontStyle=1;verticalAlign=middle;align=center;" parent="1" vertex="1">
          <mxGeometry x="-880" y="-790" width="100" height="40" as="geometry" />
        </mxCell>
      </root>
    </mxGraphModel>
  </diagram>
</mxfile>
